# MagicaVoxel @ Ephtracy

# group
o 

# material
mtllib Target.mtl
usemtl palette

# normals
vn -1 0 0
vn 1 0 0
vn 0 0 1
vn 0 0 -1
vn 0 -1 0
vn 0 1 0

# texcoords
vt 0.0449219 0.5
vt 0.845703 0.5
vt 0.958984 0.5
vt 0.994141 0.5

# verts
v -2 0 2
v -2 0 -2
v -2 0.3 2
v -2 0.3 0.3
v -2 0.3 -0.1
v -2 0.3 -2
v -2 4 0.3
v -2 4 -0.1
v 2 0 2
v 2 0 -2
v 2 0.3 2
v 2 0.3 0.3
v 2 0.3 -0.1
v 2 0.3 -2
v 2 4 0.3
v 2 4 -0.1
v -2 0 2
v -2 0.3 2
v 2 0 2
v 2 0.3 2
v -2 0.3 0.3
v -2 4 0.3
v -1.4 0.9 0.3
v -1.4 3.1 0.3
v -1.3 0.8 0.3
v -1.3 0.9 0.3
v -1.3 3.1 0.3
v -1.3 3.2 0.3
v -1.2 0.7 0.3
v -1.2 0.8 0.3
v -1.2 0.9 0.3
v -1.2 1 0.3
v -1.2 3 0.3
v -1.2 3.1 0.3
v -1.2 3.2 0.3
v -1.2 3.3 0.3
v -1.1 0.6 0.3
v -1.1 0.7 0.3
v -1.1 0.8 0.3
v -1.1 0.9 0.3
v -1.1 1 0.3
v -1.1 3 0.3
v -1.1 3.1 0.3
v -1.1 3.2 0.3
v -1.1 3.3 0.3
v -1.1 3.4 0.3
v -1 0.8 0.3
v -1 0.9 0.3
v -1 1 0.3
v -1 1.2 0.3
v -1 2.8 0.3
v -1 3 0.3
v -1 3.1 0.3
v -1 3.2 0.3
v -0.9 1.1 0.3
v -0.9 1.2 0.3
v -0.9 2.8 0.3
v -0.9 2.9 0.3
v -0.8 1 0.3
v -0.8 1.1 0.3
v -0.8 1.2 0.3
v -0.8 2.8 0.3
v -0.8 2.9 0.3
v -0.8 3 0.3
v -0.7 1.5 0.3
v -0.7 2.5 0.3
v -0.6 1.4 0.3
v -0.6 1.5 0.3
v -0.6 2.5 0.3
v -0.6 2.6 0.3
v -0.5 1.3 0.3
v -0.5 1.4 0.3
v -0.5 1.5 0.3
v -0.5 2.5 0.3
v -0.5 2.6 0.3
v -0.5 2.7 0.3
v -0.2 1.8 0.3
v -0.2 2.2 0.3
v 0.2 1.8 0.3
v 0.2 2.2 0.3
v 0.5 1.3 0.3
v 0.5 1.4 0.3
v 0.5 1.5 0.3
v 0.5 2.5 0.3
v 0.5 2.6 0.3
v 0.5 2.7 0.3
v 0.6 1.4 0.3
v 0.6 1.5 0.3
v 0.6 2.5 0.3
v 0.6 2.6 0.3
v 0.7 1.5 0.3
v 0.7 2.5 0.3
v 0.8 1 0.3
v 0.8 1.1 0.3
v 0.8 1.2 0.3
v 0.8 2.8 0.3
v 0.8 2.9 0.3
v 0.8 3 0.3
v 0.9 1.1 0.3
v 0.9 1.2 0.3
v 0.9 2.8 0.3
v 0.9 2.9 0.3
v 1 0.8 0.3
v 1 0.9 0.3
v 1 1 0.3
v 1 1.2 0.3
v 1 2.8 0.3
v 1 3 0.3
v 1 3.1 0.3
v 1 3.2 0.3
v 1.1 0.6 0.3
v 1.1 0.7 0.3
v 1.1 0.8 0.3
v 1.1 0.9 0.3
v 1.1 1 0.3
v 1.1 3 0.3
v 1.1 3.1 0.3
v 1.1 3.2 0.3
v 1.1 3.3 0.3
v 1.1 3.4 0.3
v 1.2 0.7 0.3
v 1.2 0.8 0.3
v 1.2 0.9 0.3
v 1.2 1 0.3
v 1.2 3 0.3
v 1.2 3.1 0.3
v 1.2 3.2 0.3
v 1.2 3.3 0.3
v 1.3 0.8 0.3
v 1.3 0.9 0.3
v 1.3 3.1 0.3
v 1.3 3.2 0.3
v 1.4 0.9 0.3
v 1.4 3.1 0.3
v 2 0.3 0.3
v 2 4 0.3
v -2 0.3 -0.1
v -2 4 -0.1
v 2 0.3 -0.1
v 2 4 -0.1
v -2 0 -2
v -2 0.3 -2
v 2 0 -2
v 2 0.3 -2
v -2 0 2
v 2 0 2
v -2 0 -2
v 2 0 -2
v -2 0.3 2
v 2 0.3 2
v -2 0.3 0.3
v 2 0.3 0.3
v -2 0.3 -0.1
v 2 0.3 -0.1
v -2 0.3 -2
v 2 0.3 -2
v -2 4 0.3
v 2 4 0.3
v -2 4 -0.1
v 2 4 -0.1

# faces
f 3/3/1 2/3/1 1/3/1
f 4/3/1 2/3/1 3/3/1
f 5/3/1 2/3/1 4/3/1
f 6/3/1 2/3/1 5/3/1
f 7/3/1 5/3/1 4/3/1
f 8/3/1 5/3/1 7/3/1
f 9/3/2 10/3/2 11/3/2
f 11/3/2 10/3/2 12/3/2
f 12/3/2 10/3/2 13/3/2
f 13/3/2 10/3/2 14/3/2
f 12/3/2 13/3/2 15/3/2
f 15/3/2 13/3/2 16/3/2
f 19/3/3 18/3/3 17/3/3
f 20/3/3 18/3/3 19/3/3
f 23/3/3 22/3/3 21/3/3
f 24/3/3 22/3/3 23/3/3
f 25/3/3 23/3/3 21/3/3
f 26/4/3 24/4/3 23/4/3
f 26/3/3 23/3/3 25/3/3
f 27/3/3 22/3/3 24/3/3
f 27/4/3 24/4/3 26/4/3
f 28/3/3 22/3/3 27/3/3
f 29/3/3 25/3/3 21/3/3
f 30/4/3 26/4/3 25/4/3
f 30/3/3 25/3/3 29/3/3
f 31/3/3 27/3/3 26/3/3
f 31/4/3 26/4/3 30/4/3
f 32/3/3 27/3/3 31/3/3
f 33/3/3 27/3/3 32/3/3
f 34/4/3 28/4/3 27/4/3
f 34/3/3 27/3/3 33/3/3
f 35/3/3 22/3/3 28/3/3
f 35/4/3 28/4/3 34/4/3
f 36/3/3 22/3/3 35/3/3
f 37/3/3 29/3/3 21/3/3
f 38/4/3 30/4/3 29/4/3
f 38/3/3 29/3/3 37/3/3
f 39/3/3 31/3/3 30/3/3
f 39/4/3 30/4/3 38/4/3
f 39/3/3 32/3/3 31/3/3
f 40/3/3 32/3/3 39/3/3
f 41/4/3 33/4/3 32/4/3
f 41/3/3 32/3/3 40/3/3
f 42/3/3 34/3/3 33/3/3
f 42/4/3 33/4/3 41/4/3
f 42/3/3 35/3/3 34/3/3
f 43/3/3 35/3/3 42/3/3
f 44/4/3 36/4/3 35/4/3
f 44/3/3 35/3/3 43/3/3
f 45/3/3 22/3/3 36/3/3
f 45/4/3 36/4/3 44/4/3
f 46/3/3 22/3/3 45/3/3
f 47/3/3 40/3/3 39/3/3
f 47/3/3 39/3/3 38/3/3
f 48/4/3 41/4/3 40/4/3
f 48/3/3 40/3/3 47/3/3
f 49/3/3 42/3/3 41/3/3
f 49/4/3 41/4/3 48/4/3
f 50/3/3 42/3/3 49/3/3
f 51/3/3 42/3/3 50/3/3
f 52/4/3 43/4/3 42/4/3
f 52/3/3 42/3/3 51/3/3
f 53/3/3 44/3/3 43/3/3
f 53/4/3 43/4/3 52/4/3
f 53/3/3 45/3/3 44/3/3
f 54/3/3 45/3/3 53/3/3
f 55/3/3 50/3/3 49/3/3
f 55/3/3 49/3/3 48/3/3
f 56/4/3 51/4/3 50/4/3
f 56/3/3 50/3/3 55/3/3
f 57/3/3 52/3/3 51/3/3
f 57/4/3 51/4/3 56/4/3
f 57/3/3 53/3/3 52/3/3
f 58/3/3 53/3/3 57/3/3
f 59/3/3 55/3/3 48/3/3
f 60/4/3 56/4/3 55/4/3
f 60/3/3 55/3/3 59/3/3
f 61/3/3 57/3/3 56/3/3
f 61/4/3 56/4/3 60/4/3
f 62/4/3 58/4/3 57/4/3
f 62/3/3 57/3/3 61/3/3
f 63/3/3 53/3/3 58/3/3
f 63/4/3 58/4/3 62/4/3
f 64/3/3 53/3/3 63/3/3
f 65/3/3 62/3/3 61/3/3
f 65/3/3 61/3/3 60/3/3
f 65/3/3 63/3/3 62/3/3
f 66/3/3 63/3/3 65/3/3
f 67/3/3 65/3/3 60/3/3
f 68/1/3 66/1/3 65/1/3
f 68/3/3 65/3/3 67/3/3
f 69/3/3 63/3/3 66/3/3
f 69/1/3 66/1/3 68/1/3
f 70/3/3 63/3/3 69/3/3
f 71/3/3 67/3/3 60/3/3
f 72/1/3 68/1/3 67/1/3
f 72/3/3 67/3/3 71/3/3
f 73/3/3 69/3/3 68/3/3
f 73/1/3 68/1/3 72/1/3
f 74/1/3 70/1/3 69/1/3
f 74/3/3 69/3/3 73/3/3
f 75/3/3 63/3/3 70/3/3
f 75/1/3 70/1/3 74/1/3
f 76/3/3 63/3/3 75/3/3
f 77/3/3 74/3/3 73/3/3
f 77/3/3 73/3/3 72/3/3
f 77/3/3 75/3/3 74/3/3
f 78/3/3 75/3/3 77/3/3
f 79/3/3 77/3/3 72/3/3
f 79/2/3 78/2/3 77/2/3
f 80/3/3 75/3/3 78/3/3
f 80/2/3 78/2/3 79/2/3
f 81/3/3 71/3/3 60/3/3
f 81/1/3 72/1/3 71/1/3
f 82/3/3 80/3/3 79/3/3
f 82/1/3 72/1/3 81/1/3
f 82/3/3 79/3/3 72/3/3
f 83/3/3 80/3/3 82/3/3
f 84/3/3 75/3/3 80/3/3
f 84/3/3 80/3/3 83/3/3
f 85/1/3 76/1/3 75/1/3
f 85/3/3 75/3/3 84/3/3
f 86/3/3 63/3/3 76/3/3
f 86/1/3 76/1/3 85/1/3
f 87/1/3 83/1/3 82/1/3
f 87/3/3 82/3/3 81/3/3
f 88/3/3 84/3/3 83/3/3
f 88/1/3 83/1/3 87/1/3
f 89/1/3 85/1/3 84/1/3
f 89/3/3 84/3/3 88/3/3
f 90/3/3 86/3/3 85/3/3
f 90/1/3 85/1/3 89/1/3
f 91/3/3 88/3/3 87/3/3
f 91/1/3 89/1/3 88/1/3
f 92/3/3 90/3/3 89/3/3
f 92/1/3 89/1/3 91/1/3
f 93/3/3 59/3/3 48/3/3
f 93/4/3 60/4/3 59/4/3
f 94/3/3 92/3/3 91/3/3
f 94/4/3 60/4/3 93/4/3
f 94/3/3 81/3/3 60/3/3
f 94/3/3 91/3/3 87/3/3
f 94/3/3 87/3/3 81/3/3
f 95/3/3 92/3/3 94/3/3
f 96/3/3 90/3/3 92/3/3
f 96/3/3 92/3/3 95/3/3
f 96/3/3 63/3/3 86/3/3
f 96/3/3 86/3/3 90/3/3
f 97/4/3 64/4/3 63/4/3
f 97/3/3 63/3/3 96/3/3
f 98/3/3 53/3/3 64/3/3
f 98/4/3 64/4/3 97/4/3
f 99/4/3 95/4/3 94/4/3
f 99/3/3 94/3/3 93/3/3
f 100/3/3 96/3/3 95/3/3
f 100/4/3 95/4/3 99/4/3
f 101/4/3 97/4/3 96/4/3
f 101/3/3 96/3/3 100/3/3
f 102/3/3 98/3/3 97/3/3
f 102/4/3 97/4/3 101/4/3
f 103/3/3 47/3/3 38/3/3
f 103/4/3 48/4/3 47/4/3
f 104/3/3 100/3/3 99/3/3
f 104/4/3 48/4/3 103/4/3
f 104/3/3 93/3/3 48/3/3
f 104/3/3 99/3/3 93/3/3
f 105/3/3 100/3/3 104/3/3
f 106/4/3 101/4/3 100/4/3
f 106/3/3 100/3/3 105/3/3
f 107/3/3 102/3/3 101/3/3
f 107/4/3 101/4/3 106/4/3
f 108/3/3 53/3/3 98/3/3
f 108/3/3 102/3/3 107/3/3
f 108/3/3 98/3/3 102/3/3
f 109/4/3 54/4/3 53/4/3
f 109/3/3 53/3/3 108/3/3
f 110/3/3 45/3/3 54/3/3
f 110/4/3 54/4/3 109/4/3
f 111/3/3 37/3/3 21/3/3
f 111/4/3 38/4/3 37/4/3
f 112/3/3 104/3/3 103/3/3
f 112/4/3 38/4/3 111/4/3
f 112/3/3 103/3/3 38/3/3
f 113/3/3 104/3/3 112/3/3
f 114/4/3 105/4/3 104/4/3
f 114/3/3 104/3/3 113/3/3
f 115/3/3 107/3/3 106/3/3
f 115/4/3 105/4/3 114/4/3
f 115/3/3 106/3/3 105/3/3
f 115/3/3 108/3/3 107/3/3
f 116/4/3 109/4/3 108/4/3
f 116/3/3 108/3/3 115/3/3
f 117/3/3 110/3/3 109/3/3
f 117/4/3 109/4/3 116/4/3
f 118/3/3 45/3/3 110/3/3
f 118/3/3 110/3/3 117/3/3
f 119/4/3 46/4/3 45/4/3
f 119/3/3 45/3/3 118/3/3
f 120/3/3 22/3/3 46/3/3
f 120/4/3 46/4/3 119/4/3
f 121/4/3 113/4/3 112/4/3
f 121/3/3 112/3/3 111/3/3
f 122/3/3 114/3/3 113/3/3
f 122/4/3 113/4/3 121/4/3
f 122/3/3 115/3/3 114/3/3
f 123/3/3 115/3/3 122/3/3
f 124/4/3 116/4/3 115/4/3
f 124/3/3 115/3/3 123/3/3
f 125/3/3 117/3/3 116/3/3
f 125/4/3 116/4/3 124/4/3
f 125/3/3 118/3/3 117/3/3
f 126/3/3 118/3/3 125/3/3
f 127/4/3 119/4/3 118/4/3
f 127/3/3 118/3/3 126/3/3
f 128/3/3 120/3/3 119/3/3
f 128/4/3 119/4/3 127/4/3
f 129/4/3 123/4/3 122/4/3
f 129/3/3 122/3/3 121/3/3
f 130/3/3 124/3/3 123/3/3
f 130/4/3 123/4/3 129/4/3
f 130/3/3 126/3/3 125/3/3
f 130/3/3 125/3/3 124/3/3
f 131/4/3 127/4/3 126/4/3
f 131/3/3 126/3/3 130/3/3
f 132/3/3 128/3/3 127/3/3
f 132/4/3 127/4/3 131/4/3
f 133/3/3 130/3/3 129/3/3
f 133/4/3 131/4/3 130/4/3
f 134/3/3 132/3/3 131/3/3
f 134/4/3 131/4/3 133/4/3
f 135/3/3 121/3/3 111/3/3
f 135/3/3 111/3/3 21/3/3
f 135/3/3 134/3/3 133/3/3
f 135/3/3 133/3/3 129/3/3
f 135/3/3 129/3/3 121/3/3
f 136/3/3 132/3/3 134/3/3
f 136/3/3 134/3/3 135/3/3
f 136/3/3 22/3/3 120/3/3
f 136/3/3 128/3/3 132/3/3
f 136/3/3 120/3/3 128/3/3
f 137/3/4 138/3/4 139/3/4
f 139/3/4 138/3/4 140/3/4
f 141/3/4 142/3/4 143/3/4
f 143/3/4 142/3/4 144/3/4
f 147/3/5 146/3/5 145/3/5
f 148/3/5 146/3/5 147/3/5
f 149/3/6 150/3/6 151/3/6
f 151/3/6 150/3/6 152/3/6
f 153/3/6 154/3/6 155/3/6
f 155/3/6 154/3/6 156/3/6
f 157/3/6 158/3/6 159/3/6
f 159/3/6 158/3/6 160/3/6
